<svg width="21" height="20" viewBox="0 0 21 20" fill="none" xmlns="http://www.w3.org/2000/svg">
<path d="M10.0824 1.45455H4.38604C4.27684 1.45455 4.24044 1.41819 4.24044 1.3091V0H0V5.45457C0 5.61821 0.0909966 5.69094 0.27299 5.69094H2.25672L7.40712 20.0001H10.0824H12.7759L17.9081 5.69094H19.9101C20.0921 5.69094 20.183 5.61821 20.183 5.45457V0H15.9426V1.3091C15.9426 1.41819 15.888 1.45455 15.7788 1.45455H10.0824ZM10.0824 14.4728C9.97323 14.4728 9.88223 14.4001 9.84583 14.2728L6.89754 6.03639C6.86114 5.94548 6.86114 5.87276 6.91574 5.80003C6.97034 5.7273 7.04314 5.69094 7.13413 5.69094H10.0824H13.0489C13.1399 5.69094 13.1945 5.7273 13.2491 5.80003C13.3037 5.87276 13.3219 5.94548 13.2855 6.03639L10.3372 14.2728C10.3008 14.4001 10.2098 14.4728 10.0824 14.4728Z" fill="#3F3F3F"/>
</svg>
