<svg width="24" height="24" viewBox="0 0 24 24" fill="none" xmlns="http://www.w3.org/2000/svg">
<g clip-path="url(#clip0)">
<path d="M24 12.2757C24 11.4599 23.9326 10.6398 23.7886 9.8373H12.2407V14.4583H18.8537C18.5792 15.9486 17.6975 17.267 16.4064 18.1048V21.1031H20.3517C22.6685 19.0131 24 15.9266 24 12.2757Z" fill="#4285F4"/>
<path d="M12.2409 24.0002C15.5428 24.0002 18.3275 22.9376 20.3563 21.1033L16.4111 18.105C15.3134 18.8369 13.8964 19.2514 12.2454 19.2514C9.05137 19.2514 6.34322 17.1393 5.37152 14.2997H1.30029V17.3906C3.37864 21.4428 7.61182 24.0002 12.2409 24.0002Z" fill="#34A853"/>
<path d="M5.36663 14.2994C4.85379 12.809 4.85379 11.1952 5.36663 9.70485V6.61391H1.2999C-0.436556 10.0047 -0.436556 13.9995 1.2999 17.3903L5.36663 14.2994Z" fill="#FBBC04"/>
<path d="M12.2409 4.74896C13.9863 4.7225 15.6733 5.36626 16.9374 6.54797L20.4328 3.12191C18.2195 1.0848 15.2819 -0.0351679 12.2409 0.000106762C7.61182 0.000106762 3.37864 2.55752 1.30029 6.61411L5.36702 9.70505C6.33422 6.86103 9.04687 4.74896 12.2409 4.74896Z" fill="#EA4335"/>
</g>
<defs>
<clipPath id="clip0">
<rect width="24" height="24" fill="white"/>
</clipPath>
</defs>
</svg>
